/* XPM */
static char *coin1713260758[] = {
/* columns rows colors chars-per-pixel */
"100 100 48 1 ",
"  c #DDAF0F",
". c #DFB20F",
"X c #DAA611",
"o c #DCAD10",
"O c #DEB110",
"+ c #E0B60E",
"@ c #E2BC0D",
"# c #FF9E3D",
"$ c #EDAE25",
"% c #EEB125",
"& c #F5AB32",
"* c #FAA03E",
"= c #FFA83D",
"- c #FFB43B",
"; c #E6C30C",
": c #E8C70B",
"> c #E7C80A",
", c #E9CB0A",
"< c #EED707",
"1 c #EFD907",
"2 c #ECD309",
"3 c #EFD908",
"4 c #F1DD07",
"5 c #F0DB08",
"6 c #F3E305",
"7 c #F6EA04",
"8 c #F8EE03",
"9 c #FAF302",
"0 c #FEFC01",
"q c #EC9045",
"w c #F59741",
"e c #F59F46",
"r c #ECAB42",
"t c #F5A446",
"y c #FEA543",
"u c #F5AD4B",
"i c #FFAE4A",
"p c #F5B244",
"a c #FFB947",
"s c #FAB84C",
"d c #F5B66A",
"f c #FFC24C",
"g c #FFCB52",
"h c #F5C468",
"j c #FFC56C",
"k c #FFCB6B",
"l c #FFD470",
"z c #FFDD8F",
/* pixels */
"0000000099988777666444411<<<222,2,,,,,>,>:>:::;>;;;>;;>;>;::,,,,,2,22,22<<<<336666667777999990000000",
"000000999998777666664433<<222,,2,>,,::>;;;;;;;;;;;;;;;;;;;;;;::>::,,,22222<<333436666777889990000000",
"000009999887766664453332222,,2,>>:::;;;;;;@;;;.;@;@;;;@;;;@;;;;>:;>,,,,,,2222<3336666677888999000000",
"0000099988776666445333<222,,,,::::;;;;;;@;@;.;;@@@;.@@@;@;@;@;;;;;;;:,,:,,2,2<<<33366667678899900000",
"0009999887766644433<<222,,,,::;;;;;@.@@;.;.;;.@..@@@+@@@.@+;.;@;;;;;>:;:,,,2,22233331666777789999000",
"00099987776666443<<<22,,,::::;;;.;@;;@@.;.@..@.........@@@+@@@;.@;@;@;;;::,,,,2223331616666778999000",
"0099987766644441<222,,,,::;;;;@;;@@@.@...@..............O..+.@..@@@@@;;;;:;:,,22222<3616666777889900",
"099987777666451<<<,2,,:::;;;;@@@;.@@.@...O.OOOO..OOOOOOOO.+....@+++@@@;@;;;::,:,,22<<313466677879990",
"99997766664433<222,,,>;;;;;@@@++........ Oo X  Xo X   X OOOO.......++@@;@;;;;>>>,2222233464667778899",
"9978776664453<22,2,>,;;;@;@@@@++....OOooXo-----------------ooooo...++++@+@@;;;>>:,,,2233344667777999",
"97777666451<<<2,,,,;;;;;@@+@+++OOOOO o XXX-----------------X ooooO.O..+++@@;@;;;>,,,,222134446677789",
"99777666453<2,2,,,;;;;@@@+++++OoOOoOX$----##############*##-----oXoO...++++@@@;;;::,,222333464677779",
"77766634332<,,,,>>>;@;@+++...  oX%$$$&====###wwwwwww#q#qq##=====$$$$%o ...+@@@;;;;;>:,,2233116667778",
"7776664332222,,:;;;@;@@+++..ooooX----=##**#*qqqqqqqqqqqqqq######-----ooO....+@@@.;;;:,>2222333466777",
"776663333<2,,,::;@;@++++... oo---*###wqqqqqqzzzzzzzzzzzzzzqqqq#######---oO...+@@;;;;;:,,,,3313666668",
"7666633<22,2,:;;;;@@@++OOo oXX---*###wqqqqqqzzzzzzzzzzzzzzqqqqq######---ooO..+++.;;;;>>>,22211146667",
"6663333<22,,>:;;.;.@...O oXX--####qqqdzzzaaaaaazzzzzzzzzgggzzzdqqqq#####-Xo .....@.;;;;:,,222<544666",
"666533<<,2>>::;;;.;...OO XX-**#qqqzzzzzzzaaaaaazzzzzzzzzgggzzzzzzzzqqq###--ooO...@@@@;;;::,,2<<54466",
"64443222,>:;;;.;.;..OOOoXXX-*##qqqzzzzzzzaaaaaazzzzzzzzzgggzzzzzzzzqqq###--XX  ..@@@@;;;::,2,2<<1466",
"6643<22,,>>;;;;.....ooop---#wqqzzzzzzzzzzaaaazzzzzzzzzzzgggzzgggggzzzzqq##*---oO...@.@@;::,,,22<3446",
"443<22,,>:>;;.;.++.Ooo-e###qzzzaaazzzzzaaaaaazzzzzzzzzzzgggzzgggggggggzzqqq###--O...@@@;;;;,,2221144",
"433322,,:>;;;;.;.OoooX-####qzzzaaazzzzzaaaaaazzzzzzzzzzzgggzzgggggggggzzqqq###--OO...@@;;;::,,22<316",
"432222,,>;;;.@...ooX--###qqzaaaaaazzzzzaaaaaazzzzzzzzzzzggzzzgggggggggggzzzqq###-X...@.@@;;:,,,2<<34",
"43222,,:;;@@;...Oo -###qqzzaaaaaazzzzzzaaaaaazzzzzzzzzzzggzggggggggggggggggzzq##*--.O.@@@;;;:,,22<54",
"3322,,,>;;;.@..O oX-###qqzzaaaaaazzzzzzaaaaaazzzzzzzzzzzggzggggggggggggggggzzq###--....+@;;;>>,,,2<3",
"332,,,>;;.;@...OoXX-##qzzaaaaaaaazzzzzzaarqq#iizzzzzzqqiiizggggggggggggggggggzqq#--ooO+++@@;;>,,22<3",
"222,,:>;;....OOo XX-##qzzaaaaaaaazzzzzzaarqq#iizzzzzzqqiiizggggggggggggggggggzqq#--XoO.++@@;;>:,,,2<",
"222,:>;;;;;.OOooX--*qqzaaaaaaaaaazzzzzzaarqq#iizzzzzzqqiiizggggggggggggggggggzqq###-XOO.++@@@;>:,222",
"222,>;;@.;....oX-##qzzaaaaaaaaaaazzzzkaaarqq#iizzzzzzqqiiizgggggggggggggggggggzzq###--..+++;@;;,,222",
"22,:>;;;....OOoX-##qzzaaaaaaaaaaazzzzkaaarqq#iizzzzzzqqiiizgggggggggggggggggggzzq###--oOO++@@;;::,22",
"2,,,;;@@;@..Oo--#qqzaaaaaaaaaaaaazzzzkaaarqq#iizzzzzzqqiiizgggggggggggggggggggggzqq###-%.++@@;;;:2,2",
"2,:>;;@@....Oo--#qqzaaaaaaaarrrzzzzzzhrrrrqq###zzzzzzqq###zggggggggggggggggggggggzzq##-%O+++@@;::,,2",
"2,>:;;;+++.ooXp&#qqzaaaaaaaarrrzzzzzzhrrrrqq###zzzzzzqq###zggggggggggggggggggggggzzq##-$ ...@@@;:>:2",
",,:;;@@@+.Oo$-###qqzaaaaaaaarrqii############iiiiiiiiii===iy====gggggggggggggggggzzq###=-O.++@@;;:,,",
",,;;;@@+.. o$-##qzzaaaaaaaaarrqii###########iiiiiiiiiii===i=======gggggggggggggggggzqq#=-O.++@;;>:,2",
",,;;;@@@..oo$-##qzzaaaaaaaaarrqii###########iiiiiiiiiii===i=======gggggggggggggggggzqq#=-oO++@@;;::,",
",:;;@@+...Xo$-##qzzaaaaaaaaaaarqqiiiiy######iiiiiiiii===ii=========ggggggggggggggggzqq#=-  ..@@@;;>>",
",>;;;@@..Oo$&=##dkkaaaaaaaaaaapddjjjety#####iiiiiiiii===ii=========gggggggggggggggglddw*=%%O.+@;;;:,",
">;;;@+...o -=*qqzaaaaaaaaaaaaaazzzzzqei#####iiiiiiiii===ii=========gggggggggggggggggzzqw#--..@@@;;:>",
":;;;;@+.OoX-=#qqzaaaaaaaaaaaaazzzzzzqei###iizzzzzzzzzgggzzq==========gggggggggggggggzzqw*--O.++;@;:,",
">:;@@@.. oX-=*qqzaaaaaaaaaaaaazzzzzzqei###iizzzzzzzzzgggzzq==========gggggggggggggggzzqw#-- ..@@;;;:",
":;;@@..OOoX-=*qqzaaaaaaaaaaaaazzzzzzqei###iizzzzzzzzzgggzzaqq========gggggggggggggggzzqw#--oO++@.;>:",
":;;;@@..o--#*#qqzaaaaaaaaaaaaazzzzzzqei###iizzzzzzzzzgggzzaqq========gggggggggggggggggzdq##-...@;;;:",
">;;@@@.Oo--###qqzaaaaaaaaaaaaazzzzzzqei###iizzzzzzzzzgggzzaqq========gggggggggggggggggzdq##-O++@.>;:",
";;@;...Oo--#wqzzaaaaaaaaaaaaaazzzzrrqei###iizzzzzzzzzgggzzaqq======gggggggggggggggggggzdq##-..+@.@;;",
";;;@;..Oo--#wqzzaaaaaaaaaaaaaazzzzrrqei###iizzzzzzzzzggzzzq========gggggggggggggggggggzdq##-O.+@;;;>",
":;;+@+.Oo--#wqzzaaaaaaaaaaaaaazzzzrrqti###iizzzzzzzzzggzzzq========gggggggggggggggggggzdq##- ..+.>;>",
";;;@@+.Oo--#wqzzaaaaaaaaaaaaaazzzzrrqei#####iiiiiiiii==iii=y======ggggggggggggggggggggzdq##-O.+@@;;>",
";;;.@..OO--#wqzzaaaaaaaaaaaazzzzzzrrqei#####iiiiiiii===i=======*===gggggggggggggggggggzdq##- .+@.;;;",
":;@;.@.Oo--#wqzzaaaaaaaaaaaazzzzzzrrqei#####iiiiiiii===i===========gggggggggggggggggggzdq##-o+++;;;;",
";;;@..OOo--#wqzzaaaaaaaaaaaazzzzzzrrqei#####iiiiiiii===i========y====gggggggggggggggggzdq##-..++.@;;",
";;;@;.OOo--*wqzzaaaaaaaaaaaazzzzzzrrqei#####iiiiiiii===i=============gggggggggggggggggzdq##-o.+@;;;;",
";;@@+..O --#wqzzaaaaaaaaaaaazzzzzarrqei###iizzzzzzzzgggzgggggqw=======ggggggggggggggggzdq##-..++.;;;",
";;;@@+.O --#wqzzaaaaaaaaaaaazzzzzarrqei###iizzzzzzzzgggzgggggatq=*====ggggggggggggggggzdq##-O.++;;;:",
";;;@@..OX--#wqzzaaaaaaaaaaaazzzzzarrqei###iizzzzzzzzgggzgggggatq======ggggggggggggggggzdq##-..++.;;;",
":;;@@..O --#wqzzaaaaaaaaaaaazzzzzarrqti###iizzzzzzzzgggzggggggfaqq======ggggggggggggggzdq##-O++@;;;;",
";;;@...Oo--#wqzzaaaaaaaaaaazzzzzzarrqeie##iizzzzzzzzgzzzggggggfaqq======ggggggggggggggzdq##- .+@.;;>",
":;;@;;.Oo--#wqzzaaaaaaaaaaazzzzzzarrqei###iizzzzzzzzgzzzggggggfaqq======ggggggggggggggzdq##-.++@;;;:",
">;@;@..O --*##qqzaaaaaaaaaazzzzzzarrqei###iizzzzzzgggzzgggggggfaqq======ggggggggggggggzdq##-.++@@;;:",
",;;;;@@.OoX-=#qqzaaaaaaaaaazzzzaaarrqei###iizzzzzzgggzzgggggggfaqq======ggggggggggggzzqw#-- .++@;;::",
">;;;@....oX-=#qqzaaaaaaaaaazzzzaaarrqei###iizzzzzzgggzzgggggggfaqq======ggggggggggggzzqw#--....;.;>:",
",:;;@@@.. X-=*qqzaaaaaaaaaazzzzaaarrqei###iizzzzzzgggzzgggggggggqq======ggggggggggggzzqw#--...@@>;>,",
">>;;@@@..o -=##wdkkaaaaaaaazzzzppprrqei###iizzzzzzgggzzggggggfsue#====aaggggggggggggzzqw*-aO.;;@;;>,",
",;;;;@@..o -=###qzzaaaaaaaazzzzrrrrrqei##*iizzzzzzgggzzggggggatq======ggggggggggggggzzqw*--O.@.;;:>>",
",,:;;;.... o$-##qzzaaaaaazzzzzzqqiiiiy######iiiiii===ii===============gggggggggggggzqq#=-O..++;;;:::",
",>:;;.@@+.oo$-##qzzaaaaaazzzzzzqqiiiiy######iiiiii===ii======*========gggggggggggggzqq#=-O.++@@@;:,2",
"2,>;;;@.+..o$-##qzzaaaaaazzzzzq#############iiiiii===ii==============ggggggggggggggzqq#=-..+@@;;;:,,",
",,,:;;@;+..o%-###qqzaaaaazzzzzq#############iiiiii===ii============ggggggggggggggzzq###=-O.+@@@;:,,2",
"2,:>;;.@+++.%-#*#qqzaaaaazzzzzq#############iiiiii===ii============ggggggggggggggzzq###=-+++@@;;:,,,",
"2,,,>;@;@++.oo--#qqzaaaaazzzzzrrrrrrrhzrrrqqqqqrggggrzzqqqqggggggggggggggggggggggzzq##-%O++@@;;:,,22",
"2,,,>;;;@++.Oo--###qzzaaazzzzzaaaaaazzzzzrqq#iirggggzaaq==igggggggggggggggggggggzqq###-%O++@@;;;:,,2",
"32,,:>;@@@+..o--###qzzaaazzzzzaaaaaazzzzzrqq#iirggggzaaq==igggggggggggggggggggggzqq###-%++@@@;:,,,2<",
"22,,:>;;.....OOo-###qqzzzzzzzzaaaaaazzzzzrqq#iirggggzaaq==igggggggggggggggggggzzq###--O.++@@;;:>,,<<",
"3222,,>;;;.;.OOOX--#qqzzzzzzzzaaaaaazzzzzrqq#iirggggzaaq==iggggggggggggggggggzqq###-OO..+@@@;;:,,22<",
"322,,,:;;.;.O.OOo--#qqzzzzzzzzaaaaaazzzzzrqq#iurggggzaaq==iggggggggggggggggggzqq###-OO.;@@;;;:,,,2<<",
"3222,,,;;;;;;..OOoX-##qzzzzzaaaaaaaazzzzzzzzzzzzggggzggggggggggggggggggggggzzqqq#--OOO..@@;;::,222<5",
"31222>,>:;@@.@...oX-##qzzzzzaaaaaaaazzzzzzzzzzzzggggzggggggggggggggggggggggzzqqq#--O....;.;>>,,222<5",
"433322,>>;;@@@@..oO-###qqzzzaaaaaaaazzzzzzzzzzzzggggzggggggggggggggggggggzzqq####--O..;;;;;::,,2<<14",
"63132,,,:;;;;.@....o--###qqzzzaaaaaazzzzzzzzzzzzggggzgggggggggggggggggggzqqqq###-OOO.;;.@;:::,22<314",
"6333222,,:>;;@@+...o--###qqzzzaaaaaazzzzzzzzzzzzggggzgggggggggggggggggggzqqqq###-....@@;;;:,,2223546",
"6663<2,2,,:;;@@@+... o-#####qqzaaazzzzzzzzzzzzzgggzzzgggggggggggggggggzzq####y--O..;@;@;;>:,,2221444",
"66333222,,::;;;+@@+.. o----###qzzzzzzzzzzzzzzzzgggzzgggggggggggggggzzzqq###---OO..@..;;;>:,,22331466",
"664413222,::;;;;@@@..  ----*##qzzzzzzzzzzzzzzzzgggzzgggggggggggggggzzzqq##*---O...@;@;;;:,,222<<4666",
"66661333222,:;;;;@@@++..ooX-###qqqzzzzzzzzzzzzzgggzzgggggggggglzzzzqqq###--oOOO@;@.;;;:,,,2222364666",
"7761333322,2,:;;;@@@++++.ooX--####qqqdzzzzzzzzzgggzzgggggggzzzdqqqq#####-o .O....;@;;;>:>22231166667",
"76766443222,,,::;;@@@+++.O.o--####qqqdzzzzzzzzzgggzzgggggggzzzdqqqq#####-O....;@.;;;>:,,222331366668",
"776664433222,,,:>;;@;++++... o---*#*#wqqqqzzzzzzzzzzzzzzzzzqqqw#**##*---...+.;.@;;;:>,,2223333666778",
"87776664332222,:>;;;;@;+++....%%%====*ww#wdddddddddddddddddwww##=====%%%.+++.;;@;>;:,,,2223344666778",
"8877666643<<22,,>>;;;;@@@@++.+.. ----=####qqqqqqqqqqqqqqqqq###**----- ...;..;@;;;>>,,,22233616666888",
"988776664413<22,,,,:;;;;;@@+++...Oooo%----#################----- ....+++..;;@;;;>,,,2222333466777889",
"998876666443<<222,>>;>;;@@@+@+.+.+...%----################ya---- ..+++++.;.;;;;>>,2,2221336464778899",
"99987776664433<<222,:>:;;;;;@@@@++++.OOOOo-----------------.OOOO.+++++@;;;>;;:,,,,,22334166677778999",
"909988776664433<22,2,,>:>;;;;@@@@+++++++.....  O.o.Oo .o........++@+@@@;;;;:>,>,2,223114666667789990",
"0909887776664453<<222,,,::;;;;@;@@@@++++.++.++................;.@@@@;;;;;:;:>,,222223344466777899990",
"009999887776645533<22,2,,>>:;;;;;@@@@@@+++++++++.+++++++.@..;..;@;@;@;;;::,>,22222311444667778999000",
"0009998877766664442<<22,2,,,::;;;;;@;;@@;@@@+@@@++@+@+@@.;;@;;@;@;;;:;:,,,,,222233364666777889990000",
"000099998777666644131<222,,,:::::;;;;;@;@@.;@.@;.@@.@@;@@.;;;;.;;>;>::,,,,,222<<55446666778889990000",
"00000099998776664644333322222,,,,:>:;>;;;;;;;;;@;@;;;;.;;;;;;::::::,,,,,222<2<<544466676788990000000",
"000000099987776766441313<2222,,,,,,>::>:;;;;;;;;;;;;;;;;;>;;::::,,,,,,,2222<<55464666778889999000000",
"00000000999988777666664333<222<2,2,,,,:,>,::>;>>;>;;>;>>>>::,>>>,,,,22<<<<<5554666667778899900000000"
};
