/* XPM */
static char *icesword1713260759[] = {
/* columns rows colors chars-per-pixel */
"100 100 12 1 ",
"  c None",
". c black",
"X c gray13",
"o c #0097A7",
"O c #00BFA5",
"+ c #1DE9B6",
"@ c #00B8D4",
"# c #00E5FF",
"$ c #18FFFF",
"% c #64FFDA",
"& c #84FFFF",
"* c white",
/* pixels */
"                                                                                                    ",
"                                                                                                    ",
"                                                                                                    ",
"                                                                                                    ",
"                                                                                                    ",
"                                                                                                    ",
"                                                                                                    ",
"                                                                                                    ",
"                                                                                                    ",
"                                                                                                    ",
"                                                                                                    ",
"                                                                                                    ",
"                                                                                                    ",
"                                                                                                    ",
"                                                                                                    ",
"                                                                                                    ",
"                                                                                                    ",
"                                                                                                    ",
"                                                                                                    ",
"                                                                                                    ",
"                ........                                  **                                        ",
"                ........                                  **                                        ",
"                ..**  **..                                                                    **    ",
"                ..**  **..                                                                    **    ",
"                ..****  **..                                                                        ",
"                ..****  **..                          XX                                            ",
"                ..**  **&&**..                      XXX                                             ",
"                ..**  **&&**..                     XXXXX                                            ",
"                  ..**&&&&&&**..                  XXXXX                                             ",
"                  ..**&&&&&&**..                  XXXXX                                             ",
"                    ..**&&&&&&**..........         XXXXX                                            ",
"                    ..**&&&&&&**..........         XXXXX                                            ",
"                      ..**@@##$$$$$$$$##@@....      XX@@XXXX                                        ",
"                       ..**@@##$$$$$$$$##@@....     XX@@XXXX                                        ",
"                       ..@@$$$$&&$$&&$$&&$$$$##..    XX##@@XXXX                                     ",
"                       ..@@$$$$&&$$&&$$&&$$$$##..     XX##@@XXXX                                    ",
"                     ..@@##$$&&$$&&$$$$$$$$$$$$##..    XX$$XXXXX                                    ",
"                    ..@@##$$&&$$&&$$$$$$$$$$$$##..      XX$$XXXX                                    ",
"                    ..@@########@@@@@@@@####$$$$##..      XX$$$$X                                   ",
"                    ..@@########@@@@@@@@####$$$$##..      XX$$$$XX                                  ",
"                 ..@@######... .**&&&&&&**..####$$..       XX&&##XX                                 ",
"                 ..@@######.. ..**&&&&&&**..####$$..       XX&&##XX                                 ",
"                 ..@@@@@@..     ..**&&$$&&**..@@####..      X@@XXX                                  ",
"                 ..@@@@@@..     ..**&&$$&&**..@@####..     XX@@XX                                   ",
"                 ..@@@@..         ..**&&&&&&**..@@@@..    XXXX                                      ",
"                 ..@@@@..         ..**&&&&&&**..@@@@..  XXXX                                        ",
"                 ..@@@@..           ..**&&$$&&**..@@..                                              ",
"                 ..@@@@..           ..**&&$$&&**..@@..                                              ",
"                   ..@@..           ..@@**&&$$&&**....                                              ",
"                   ..@@..           ..@@**&&$$&&**....                                              ",
"                   ..@@..           ..@@@@**&&$$&&**..                                              ",
"                   ..@@..           ..@@@@**&&$$&&**..                                              ",
"                     ....    ..     ..@@@@@@**$$$$&&**..          ....                              ",
"                     ....    ..     ..@@@@@@**$$$$&&**..          ....                              ",
"                            ..@@..  ..@@####@@**$$$$&&**..      ..%%++..                            ",
"                            ..@@..  ..@@####@@**$$$$&&**..      ..%%++..                            ",
"                            ..##..    ..##$$##@@**$$$$@@@@..    ..%%++@@..                          ",
"                            ..##..    ..##$$##@@**$$$$@@@@..    ..%%++@@..                          ",
"                            ..$$$$..  ..$$&&$$##@@##@@&&&&@@....@@++@@@@..                          ",
"                            ..$$$$..  ..$$&&$$##@@##@@&&&&@@....@@++@@@@..                          ",
"                              ..@@..    ..$$&&$$$$&&&&&&&&##$$@@oo@@....                            ",
"                              ..@@..    ..$$&&$$$$&&&&&&&&##$$@@oo@@....                            ",
"                                ....      ..$$&&&&&&&&$$##$$@@oo@@..                                ",
"                                ....      ..$$&&&&&&&&$$##$$@@oo@@..                                ",
"                                            ....####@@..$$@@oo@@oo..                                ",
"                                            ....####@@..$$@@oo@@oo..                                ",
"                                                ........@@oo@@oooo..                                ",
"                                                ........@@oo@@oooo..                                ",
"                                                  ....@@oo@@ooooooOO..                              ",
"                                                  ....@@oo@@ooooooOO..                              ",
"                                                ..%%%%++@@......OOOO%%..                            ",
"                                                ..%%%%++@@......OOOO%%..                            ",
"                                                ..++++OO..      ..%%++%%..                          ",
"                                                ..++++OO..      ..%%++%%..                          ",
"                                                  ..OO@@..        ..%%%%OO....                      ",
"                                                  ..OO@@..        ..%%%%OO....                      ",
"                                                    ....            ..OOOO%%++..                    ",
"                                                    ....            ..OOOO%%++..                    ",
"                                                                      ..%%++++..                    ",
"                                                                      ..%%++++..                    ",
"                                                                      ..++++..                      ",
"                                                                      ..++++..                      ",
"                                                                        ....                        ",
"                                                                        ....                        ",
"                                                                                                    ",
"                                                                                                    ",
"                                                                                                    ",
"                                                                                                    ",
"                                                                                                    ",
"                                                                                                    ",
"                                                                                                    ",
"                                                                                                    ",
"                                                                                                    ",
"                                                                                                    ",
"                                                                                                    ",
"                                                                                                    ",
"                                                                                                    ",
"                                                                                                    ",
"                                                                                                    ",
"                                                                                                    "
};
