/* XPM */
static char *shield21713260762[] = {
/* columns rows colors chars-per-pixel */
"100 100 60 1 ",
"  c None",
". c #121A47",
"X c #131B49",
"o c #172459",
"O c #19255A",
"+ c #1E327D",
"@ c #1B387B",
"# c #202F7A",
"$ c #20327E",
"% c #FF5505",
"& c #FC5708",
"* c #FE5E13",
"= c #FF6015",
"- c #FE9F12",
"; c #F79D1A",
": c #FA9F19",
"> c #FEA115",
", c #FFA119",
"< c #FCA422",
"1 c #FEA827",
"2 c #FEA829",
"3 c #FF834E",
"4 c #FCB74D",
"5 c #FEBB59",
"6 c #233580",
"7 c #2A3B83",
"8 c #1E4E9E",
"9 c #2F4086",
"0 c #1E5ABC",
"q c #2B56A0",
"w c #2C58A0",
"e c #365DA4",
"r c #5C6FB2",
"t c #1E64CD",
"y c #1D73E7",
"u c #1D76EE",
"i c #1E78EE",
"p c #1876F3",
"a c #2274E7",
"s c #2175EB",
"d c #257AED",
"f c #2A7DEF",
"g c #2A7EF0",
"h c #74B8B6",
"j c #73B7BC",
"k c #368DCD",
"l c #3A8DCA",
"z c #3C90CF",
"x c #3EB6F6",
"c c #3EB6F9",
"v c #3DBCFD",
"b c #4396D4",
"n c #40BDFF",
"m c #49BFFD",
"M c #47C0FE",
"N c #4AC1FE",
"B c #A4A7BB",
"V c #FFDFCE",
"C c #FFECD3",
"Z c #FEFEFE",
/* pixels */
"                                                                                                    ",
"                                                                                                    ",
"                                                                                                    ",
"                                                                                                    ",
"                                                                                                    ",
"                                                                                                    ",
"                                                                                                    ",
"                                                                                                    ",
"                                                                                                    ",
"                                                                                                    ",
"                                                                                                    ",
"                                                                                                    ",
"                                                                                                    ",
"                                                                                                    ",
"                                                                                                    ",
"                                                                                                    ",
"                                                                                                    ",
"                                                                                                    ",
"                                                                                                    ",
"                                                                                                    ",
"                                                                                                    ",
"                                                                                                    ",
"                                                                                                    ",
"                                                                                                    ",
"                                                                                                    ",
"                                                                                                    ",
"                                                                                                    ",
"                                                                                                    ",
"                                            ZZZZZZZZZZZZ                                            ",
"                                  ,,,,,,,,,:;;$OXZZZBX$+%%%%%%&%%%                                  ",
"                                  ,,,,,,,,:;;;$OXZZZBX+$%%%&*&%%%%                                  ",
"                                  ,,,,,,:22;,,$OXZZZBX#+%%&**%%%%%                                  ",
"                                  ,,,vvvvmNxMv$O.ZZZB.uuasfaaup%%%                                  ",
"                                  ,,,vvnmnnnvv$o.ZZZB.uuugfyuup%%%                                  ",
"                                  ,,,vNNNnnnnnnq+ZZXO$ufsfuuuup%&%                                  ",
"                                  ,,,xNNnnnnnnnw+ZZXO#uufuuuuup%%%                                  ",
"                                  ,;;xmvnnnnnnnq+.XX@upsuiuupup%%%                                  ",
"                                  ,<<Mvvvnnnnnnq+..X@uuuuspusup%%%                                  ",
"                                  ,2,vnnnnnnnnnq$.X.@uuuuuiuisp%%%                                  ",
"                                  ,,,vnnnnnnnv$$$$+.@uuuuuspupp%%%                                  ",
"                                  ,,,vvvvvvvvv$$6++X@uiuuussusp%%&                                  ",
"                                  ,,,vvvvM@6$#$$+ggXXXupuuXpupp%%%                                  ",
"                                  ,,,vvvn$cvnx$lnyuy0XXXXXuiupp%%%                                  ",
"                                  ,,,vMvv$cnnn$bmyuu0.XX.Xpsiip%%%                                  ",
"                                  ,,,vvMMvnnvm$zvuuuuuXXuuuuupp%%%                                  ",
"                                  ,,,vvvMvnnvc$knuuuiuXXuuuuuai%%%                                  ",
"                                  ,,,vvMvnnv7$nnnuuuuuXXuuuuufu%%%                                  ",
"                                  ,,,vvvvveelknnnpuut@XXuiuudyp%%%                                  ",
"                                  ,,,vvvnm9$vvnvnuuu0.XXuuffdup%%%                                  ",
"                                  ,,,vvMnNNvvvMnnupu0.uuuuffyup%%%                                  ",
"                                  ,,,vvMxmnnnnvvnsyp0.uuufuuuup%%%                                  ",
"                                  ,,,vvMNvnnnnMnnpsX@uudffuuuup%%%                                  ",
"                                  ,,,vvvxvnnvMvnn00@8sudfuiuuup%%%                                  ",
"                                  ,,,vvvMvvnvvvvnXXpuuyyuuuuuup%%%                                  ",
"                                  ,,,vvvnnMvvMvvnXXuadyuuuupu%%%%%                                  ",
"                                  ,,,vvMvnnvvvMvnXXugduuuuuuu%%%%%                                  ",
"                                  ,,,,,vnvnvnvMq$puuuuupuuu%%%%%                                    ",
"                                  <,,,,MnnMvvnvw$iuuuuuuuua%%%%%                                    ",
"                                    ,,,,,vvnMvMnnsuuuuuuuy%%%%%                                     ",
"                                     >,,,,nnvvvvnpuuuuuu%%%%%                                       ",
"                                     ,,,,,nnnnnnniuuuiuu%%%%%                                       ",
"                                       ,,,,,nmmnnsspui%%%%%                                         ",
"                                       ,>,,,xnNnnpiuup%%%%%                                         ",
"                                         ,,,<,nnnuuur%%%%&                                          ",
"                                          112,>hvui%%%%%                                            ",
"                                          22,,,jvuu%%%%%                                            ",
"                                            ,,,,,&%%%%                                              ",
"                                            ,,,,,%%%&%                                              ",
"                                              ,,:%%%3                                               ",
"                                              C4:%%C                                                ",
"                                               5:%%                                                 ",
"                                                                                                    ",
"                                                                                                    ",
"                                                                                                    ",
"                                                                                                    ",
"                                                                                                    ",
"                                                                                                    ",
"                                                                                                    ",
"                                                                                                    ",
"                                                                                                    ",
"                                                                                                    ",
"                                                                                                    ",
"                                                                                                    ",
"                                                                                                    ",
"                                                                                                    ",
"                                                                                                    ",
"                                                                                                    ",
"                                                                                                    ",
"                                                                                                    ",
"                                                                                                    ",
"                                                                                                    ",
"                                                                                                    ",
"                                                                                                    ",
"                                                                                                    ",
"                                                                                                    ",
"                                                                                                    ",
"                                                                                                    ",
"                                                                                                    ",
"                                                                                                    ",
"                                                                                                    "
};
