/* XPM */
static char *tree1713260762[] = {
/* columns rows colors chars-per-pixel */
"100 100 27 1 ",
"  c None",
". c #662C18",
"X c #662D18",
"o c #6F321C",
"O c #7A3820",
"+ c #1B701A",
"@ c #813C22",
"# c #823D23",
"$ c #B35A38",
"% c #B75C3A",
"& c #B95D3A",
"* c #289325",
"= c #2A9B28",
"- c #3CB33A",
"; c #3EB83C",
": c #41BF3F",
"> c #46C744",
", c #48CD46",
"< c #4AD048",
"1 c #4ED64C",
"2 c #51DB4F",
"3 c #7ED27D",
"4 c #84D883",
"5 c #81DC80",
"6 c #87E686",
"7 c #89EA88",
"8 c #99EE98",
/* pixels */
"                                                                                                    ",
"                                                                                                    ",
"                                                                                                    ",
"                                                                                                    ",
"                                                                                                    ",
"                                                                                                    ",
"                                                                                                    ",
"                                                                                                    ",
"                                                                                                    ",
"                                                                                                    ",
"                                                                                                    ",
"                                                                                                    ",
"                                                                                                    ",
"                                            888822                                                  ",
"                                            888822                                                  ",
"                                       888888822888888                                              ",
"                                       888888822888888                                              ",
"                                     88888882222222222888882222                                     ",
"                                     88888882222222222888882222                                     ",
"                                     8822222>>>>>>>>8822888>>>>22                                   ",
"                                     8822222>>>>>>>>8822888>>>>22                                   ",
"                               2222>>2222>>>22>>88>>22>>22222>>22                                   ",
"                               2222>>2222>>>22>>88>>22>>22222>>22                                   ",
"                               222222>>>>222888888>>22>>22222>>==                                   ",
"                               222222>>>>222888888>>22>>22222>>==                                   ",
"                          222888822++++>>>>>>>>>88++==>>>>>22>>==                                   ",
"                          222888822++++>>>>>>>>>88++==>>>>>22>>==                                   ",
"                          222888822++++::>>>>>>>44++**>>:::<<;;==                                   ",
"                        2288888888888====>>>>>>>++==++22=====++====                                 ",
"                        2288888888888====>>>>>>>++==++22=====++====                                 ",
"                        88>>>88>>>>2222+++++++++88228888+++++==++======88822                        ",
"                        88>>>88>>>>2222+++++++++88228888+++++==++======88822                        ",
"                      22>>>>>>>>>>>>>>>+++++++==2222228888822++++==88888888888                      ",
"                      22>>>>>>>>>>>>>>>+++++++==2222228888822++++==88888888888                      ",
"                      22>>>>>>>++>>++++==888==++++>>>>>>>>>88>>88888822222222222                    ",
"                      22>>>>>>>++>>++++==888==++++>>>>>>>>>88>>88888822222222222                    ",
"                      2288===++====8888888882288==++>>++>>>>>2222==88>>>>>======                    ",
"                      2288===++====8888888882288==++>>++>>>>>2222==88>>>>>======                    ",
"                      888888822888888222288888888888==++888888888888822===++++22                    ",
"                      888888822888888222288888888888==++888888888888822===++++22                    ",
"                      22>>2222222888822222222222882288888888822==888888888++>>22                    ",
"                      22>>2222222888822222222222882288888888822==888888888++>>22                    ",
"                      22>>111112288331122222222288,,77667776611==557766888++--22                    ",
"                    ==22>>>>>>>8888++>>22222228888==22>>222>>>>====22>>88888++                      ",
"                    ==22>>>>>>>8888++>>22222228888==22>>222>>>>====22>>88888++                      ",
"                    ====+++++>>8888++>>>>88888>>>>++>>>>>>>>>>>>>++>>22=====++==                    ",
"                    ====+++++>>8888++>>>>88888>>>>++>>>>>>>>>>>>>++>>22=====++==                    ",
"                      ==+++++++==++>>>>>>>>>>>>>==++++==+++====++>>+++++++++==                      ",
"                      ==+++++++==++>>>>>>>>>>>>>==++++==+++====++>>+++++++++==                      ",
"                               ==++>>8888888>>>>++++++++===++++>>======+++++                        ",
"                               ==++>>8888888>>>>++++++++===++++>>======+++++                        ",
"                                 ====>>>>>>>++++++====.....                                         ",
"                                 ====>>>>>>>++++++====.....                                         ",
"                                   ====+++++++....  ....###                                         ",
"                                   ====+++++++....  ....###                                         ",
"                                       .........&&  ....                                            ",
"                                       .........&&  ....                                            ",
"                                       .........$$  ..oo                                            ",
"                                              ..##  ..##     8822                                   ",
"                                              ..##  ..##     8822                                   ",
"                                              ....##..     88>>888822                               ",
"                                              ....##..     88>>888822                               ",
"                                              ..&&##..  =====>>>>==>>                               ",
"                                              ..&&##..  =====>>>>==>>                               ",
"                                                &&##..     ==========22                             ",
"                                                &&##..     ==========22                             ",
"                                                &&##..  &&&##                                       ",
"                                                &&##..  &&&##                                       ",
"                                                &&##..&&###..                                       ",
"                                                &&##..&&###..                                       ",
"                                                &&####.....                                         ",
"                                                &&####.....                                         ",
"                                                &&##OO.....                                         ",
"                                                &&##....                                            ",
"                                                &&##....                                            ",
"                                                &&##..                                              ",
"                                                &&##..                                              ",
"                                              &&&&##..                                              ",
"                                              &&&&##..                                              ",
"                                              &&&&##..                                              ",
"                                              &&&&##..                                              ",
"                                            &&..##....                                              ",
"                                            &&..##....                                              ",
"                                         &&&&&.............                                         ",
"                                         &%&&&.............                                         ",
"                                         ###XX##..&&.......                                         ",
"                                         ###X.##..&&.......                                         ",
"                                         ###..@@..%%.......                                         ",
"                                                                                                    ",
"                                                                                                    ",
"                                                                                                    ",
"                                                                                                    ",
"                                                                                                    ",
"                                                                                                    ",
"                                                                                                    ",
"                                                                                                    ",
"                                                                                                    ",
"                                                                                                    ",
"                                                                                                    ",
"                                                                                                    "
};
